<svg width="130" height="130" viewBox="0 0 130 130" fill="none" xmlns="http://www.w3.org/2000/svg">
<path d="M117.871 77.1285C124.57 47.9284 106.329 18.8269 77.1286 12.1285C47.9285 5.43002 18.827 23.6712 12.1286 52.8713C5.43016 82.0713 23.6713 111.173 52.8714 117.871C82.0715 124.57 111.173 106.329 117.871 77.1285Z" fill="#D6D6D6"/>
<path d="M64.9802 87.2792C76.6333 87.2792 86.08 74.1948 86.08 58.0544C86.08 41.914 76.6333 28.8296 64.9802 28.8296C53.3271 28.8296 43.8804 41.914 43.8804 58.0544C43.8804 74.1948 53.3271 87.2792 64.9802 87.2792Z" fill="white"/>
<path d="M64.6456 85.4111C46.9884 85.4111 31.1908 89.6411 20.6953 96.3003C25.6847 103.365 32.2918 109.134 39.9652 113.125C47.6385 117.117 56.1553 119.214 64.8045 119.243C73.4537 119.271 81.9842 117.23 89.6838 113.29C97.3835 109.35 104.029 103.625 109.065 96.5935C98.5695 89.7668 82.5708 85.4111 64.6456 85.4111Z" fill="white"/>
<path d="M68.1955 64.9897H61.7626C57.3123 64.9897 53.7046 68.5974 53.7046 73.0477V91.3834C53.7046 95.8337 57.3123 99.4413 61.7626 99.4413H68.1955C72.6458 99.4413 76.2535 95.8337 76.2535 91.3834V73.0477C76.2535 68.5974 72.6458 64.9897 68.1955 64.9897Z" fill="white"/>
<path d="M47.2144 59.7128C47.8426 64.4035 46.8039 68.466 44.8858 68.7927C42.9676 69.1194 40.907 65.5762 40.2788 60.8939C39.6506 56.2116 40.6809 52.1491 42.599 51.8224C44.5172 51.4957 46.5778 54.997 47.2144 59.7128Z" fill="white"/>
<path d="M82.7542 59.7128C82.1176 64.4035 83.1562 68.466 85.0744 68.7927C86.9926 69.1194 89.0531 65.5762 89.6897 60.8939C90.3263 56.2116 89.2793 52.1491 87.3611 51.8224C85.443 51.4957 83.3824 54.997 82.7542 59.7128Z" fill="white"/>
<path d="M44.6428 56.9068C43.9281 52.2217 43.2189 47.5422 42.5153 42.8682C42.2556 41.193 42.0043 39.3753 42.6242 37.7754C43.244 36.1756 45.0617 34.894 46.6783 35.4971C46.0333 32.2471 49.6351 29.8431 52.7678 28.7961C58.0107 26.8751 63.6248 26.1844 69.1769 26.7774C74.7485 27.4019 79.9184 29.9809 83.7684 34.0564C84.9812 35.332 85.9191 36.843 86.5242 38.4958C87.6047 41.7039 86.9179 45.1968 86.2226 48.5473L84.5474 56.4461C84.4695 57.0537 84.2357 57.6308 83.8689 58.1214C83.2155 58.8501 82.1099 58.9004 81.1299 58.9004L49.7356 58.9758C47.7672 58.9758 45.204 58.4899 44.9444 56.5383" fill="white"/>
<rect x="90" y="90" width="28" height="28" rx="14" fill="#EDEDED"/>
<path d="M97.25 106.85V102.65C97.25 101.81 97.25 101.39 97.4135 101.069C97.5573 100.787 97.7866 100.557 98.0688 100.413C98.3897 100.25 98.8101 100.25 99.6501 100.25H102.117C102.037 100.25 101.993 100.25 101.957 100.246C101.517 100.196 101.214 99.7768 101.307 99.3431C101.315 99.3028 101.333 99.2517 101.366 99.1506L101.368 99.1463C101.406 99.0308 101.425 98.9731 101.447 98.9221C101.664 98.4004 102.157 98.0456 102.721 98.0041C102.776 98 102.837 98 102.958 98H105.041C105.163 98 105.224 98 105.279 98.0041C105.843 98.0456 106.336 98.4004 106.553 98.9221C106.574 98.9731 106.594 99.0308 106.632 99.1462C106.667 99.2502 106.684 99.3023 106.693 99.3432C106.786 99.7769 106.484 100.196 106.043 100.246C106.008 100.25 105.963 100.25 105.883 100.25H108.35C109.19 100.25 109.61 100.25 109.931 100.413C110.213 100.557 110.443 100.787 110.587 101.069C110.75 101.389 110.75 101.809 110.75 102.648V106.852C110.75 107.691 110.75 108.11 110.587 108.431C110.443 108.713 110.213 108.943 109.931 109.087C109.61 109.25 109.191 109.25 108.352 109.25H99.6477C98.8092 109.25 98.3894 109.25 98.0688 109.087C97.7866 108.943 97.5573 108.713 97.4135 108.431C97.25 108.11 97.25 107.69 97.25 106.85Z" fill="#666666"/>
<path d="M102.117 100.25H99.6501C98.8101 100.25 98.3897 100.25 98.0688 100.413C97.7866 100.557 97.5573 100.787 97.4135 101.069C97.25 101.39 97.25 101.81 97.25 102.65V106.85C97.25 107.69 97.25 108.11 97.4135 108.431C97.5573 108.713 97.7866 108.943 98.0688 109.087C98.3894 109.25 98.8092 109.25 99.6477 109.25H108.352C109.191 109.25 109.61 109.25 109.931 109.087C110.213 108.943 110.443 108.713 110.587 108.431C110.75 108.11 110.75 107.691 110.75 106.852V102.648C110.75 101.809 110.75 101.389 110.587 101.069C110.443 100.787 110.213 100.557 109.931 100.413C109.61 100.25 109.19 100.25 108.35 100.25H105.883M102.117 100.25H102.163M102.117 100.25C102.126 100.25 102.136 100.25 102.146 100.25L102.163 100.25M102.117 100.25C102.037 100.25 101.993 100.25 101.957 100.246C101.517 100.196 101.214 99.7768 101.307 99.3431C101.315 99.3028 101.333 99.2517 101.366 99.1506L101.368 99.1463C101.406 99.0308 101.425 98.9731 101.447 98.9221C101.664 98.4004 102.157 98.0456 102.721 98.0041C102.776 98 102.837 98 102.958 98H105.041C105.163 98 105.224 98 105.279 98.0041C105.843 98.0456 106.336 98.4004 106.553 98.9221C106.574 98.9731 106.594 99.0308 106.632 99.1462C106.667 99.2502 106.684 99.3023 106.693 99.3432C106.786 99.7769 106.484 100.196 106.043 100.246C106.008 100.25 105.963 100.25 105.883 100.25M102.163 100.25H105.837M105.837 100.25H105.883M105.837 100.25L105.853 100.25C105.864 100.25 105.874 100.25 105.883 100.25M104 107C102.757 107 101.75 105.993 101.75 104.75C101.75 103.507 102.757 102.5 104 102.5C105.243 102.5 106.25 103.507 106.25 104.75C106.25 105.993 105.243 107 104 107Z" stroke="#EDEDED" stroke-width="0.5" stroke-linecap="round" stroke-linejoin="round"/>
</svg>
